<?xml version="1.0" encoding="utf-8"?>
<!-- Generator: Adobe Illustrator 24.0.0, SVG Export Plug-In . SVG Version: 6.00 Build 0)  -->
<svg version="1.1" id="Layer_1" xmlns="http://www.w3.org/2000/svg" xmlns:xlink="http://www.w3.org/1999/xlink" x="0px" y="0px"
	 viewBox="0 0 1366 768" style="enable-background:new 0 0 1366 768;" xml:space="preserve">
<style type="text/css">
	.st0{fill:#80CC28;}
	.st1{fill:#6CAD21;}
	.st2{fill:none;}
	.st3{fill:#FFA500;}
</style>
<g>
	<path class="st0" d="M649.38,127.92c-1.08,6.02-0.93,11.46-0.09,16.24c1.72,9.72,6.95,18.4,14.07,25.23
		c15.93,15.3,21.18,42.34,22.88,56.72c-10.11-1.62-49.07-10.6-52.47-53.52c-2.22-44.08,19.91-57.36,19.91-57.36
		s0.23,13.84,14.3,21.56c14.06,7.71,37.44,26.78,36.99,47.43c-0.39,17.91-4.55,25.07-12.46,36.56
		c-4.11-33.41-14.49-43.94-30.78-59.76C649.49,150.59,649.38,127.92,649.38,127.92z"/>
	<path class="st1" d="M693.68,233.07c-1.02-0.03-2.03-0.05-3.06-0.05c-1.25,0-2.48,0.01-3.72,0.04c-0.12-1.66-0.32-4.05-0.66-6.95
		c-1.7-14.38-6.95-41.42-22.88-56.72c-7.12-6.83-12.36-15.51-14.07-25.23c-0.84-4.78-0.99-10.22,0.09-16.24
		c0,0,0.11,22.67,12.36,33.11c16.29,15.82,26.67,26.34,30.78,59.76C692.99,224.57,693.38,228.66,693.68,233.07z"/>
</g>
<g>
	<path class="st2" d="M594.84,461.59c0.49,0.76,0.98,1.52,1.48,2.27"/>
</g>
<g id="XMLID_4_">
	<path id="XMLID_39_" class="st0" d="M890.8,629.45c0.26,1.85,1.1,3.85,0.69,5.52c-3.71,15.08-23.3,22.82-35.83,14.08
		c-2.62-1.83-4.51-4.78-6.69-7.16c-7.36,14.18-21.51,13.06-25.68,3.63c-2.86,2.01-5.52,4.7-8.71,5.95
		c-8.21,3.22-14.53-1.3-14.56-10.34c-0.01-3.91,0.89-7.91,1.91-11.71c2.12-7.95,4.51-15.84,7.02-23.67
		c0.46-1.45,2.44-3.77,2.93-3.57c1.97,0.78,4.69,2.09,5.16,3.78c0.74,2.68,0.34,5.95-0.36,8.77c-1.88,7.58-4.36,15.01-6.19,22.61
		c-0.48,2,0.56,4.39,0.9,6.6c2.48-0.76,5.38-0.95,7.31-2.46c1.81-1.42,2.97-4.11,3.76-6.48c2.75-8.18,5.22-16.46,7.51-23.79
		c-2.42-2.87-4.49-5.33-6.82-8.09c1.43-0.74,1.77-1.05,2.13-1.08c7.83-0.71,7.83-0.71,10.05-8.48c0.31-1.09,0.39-2.35,0.98-3.24
		c0.96-1.43,2.76-3.9,3.31-3.67c1.92,0.81,4.49,2.32,4.92,4.07c0.79,3.15,0.22,6.67,0.22,9.87c2.3,1.85,4.92,3.96,7.55,6.07
		c-0.22,0.62-0.43,1.24-0.65,1.85c-2.21,0.11-4.43,0.38-6.63,0.29c-2.39-0.1-3.77,0.62-4.52,3.19c-2.24,7.63-4.82,15.16-7.07,22.78
		c-0.96,3.25-2.01,6.89,1.82,9.1c2.95,1.7,7.06,0.02,9.21-4.31c2.05-4.13,3.24-8.71,4.88-13.06c2.19-5.79,3.74-12.01,6.87-17.21
		c4.89-8.14,14.15-10.41,22.67-6.77c4.17,1.78,6.4,6.54,5.68,12.14c-1.69,13.26-10.91,21.27-24.99,21.54c0.34,4.52,3,6.75,6.9,7.73
		c10.03,2.53,17.75-1.63,21.56-11.53c0.35-0.9,0.75-1.79,1.12-2.68C889.72,629.62,890.26,629.53,890.8,629.45z M859.2,627.88
		c9.82,2.61,14.35-5.89,16.02-13.71c0.66-3.1-0.02-5.72-3.23-6.89c-3.1-1.13-5.27,0.67-6.35,3.24
		C863.27,616.18,861.34,622.03,859.2,627.88z"/>
	<path id="XMLID_35_" class="st0" d="M794.23,619.49c7.72,8.49,5.84,21.14-3.92,27.77c-8.04,5.47-16.87,5.78-25.88,4.02
		c-4.43-0.86-6.39-5.16-5.14-10.49c1.36-5.81,2.96-11.57,4.45-17.35c2.35-9.08,4.62-18.19,7.09-27.24c0.77-2.83,1.21-5.07-1.89-6.79
		c-1.12-0.62-1.63-2.41-2.91-4.45c10.06-1.55,19.09-5.33,28.7-2.4c7.22,2.2,11.3,8.71,10.16,16.43
		C803.7,607.06,800.55,614.21,794.23,619.49z M782.76,590.61c-2.34,9.14-4.65,18.18-7.02,27.45c8.35-0.8,14.62-5.97,18.06-14.37
		c1.6-3.89,2.01-7.76-0.83-11.2C790.13,589.05,786.45,589.53,782.76,590.61z M769.11,643.23c8.44,2.37,16.74-1.27,19.04-8.16
		c1.06-3.18,2.02-7.33-1.41-8.78c-3.73-1.58-8.23-1.25-12.4-1.64c-0.24-0.02-0.68,0.86-0.82,1.38
		C772.02,631.76,770.57,637.51,769.11,643.23z"/>
	<path id="XMLID_31_" class="st0" d="M481.69,584.82c9.46-1.26,17.84-4.75,26.81-2.69c8.76,2.01,13.33,8.99,11.62,18.04
		c-1.43,7.54-4.33,14.38-10.41,19.28c7.24,8.21,6.13,19.89-2.54,26.76c-8.32,6.58-17.83,7.06-27.57,4.95
		c-4.51-0.97-6.13-5.37-4.67-11.07c3.56-13.89,7.13-27.79,10.8-41.65c0.99-3.73,2.39-7.3-2.07-9.83
		C482.88,588.18,482.64,586.73,481.69,584.82z M498.14,590.6c-2.37,9.37-4.62,18.28-6.95,27.46c8.4-0.89,14.46-5.87,17.98-14.08
		c1.72-4.02,2.25-7.99-0.77-11.56C505.52,589.02,501.84,589.57,498.14,590.6z M484.6,643.14c9.19,2.94,18.51-2.2,19.65-10.46
		c0.39-2.82,0.34-6.14-2.6-6.88c-3.86-0.98-8.02-0.71-12.05-0.91c-0.18-0.01-0.48,0.67-0.58,1.07
		C487.53,631.69,486.07,637.43,484.6,643.14z"/>
	<path id="XMLID_28_" class="st0" d="M705.29,634.57c-4.03,0-7.6-0.18-11.13,0.11c-1.04,0.09-2.31,1.32-2.9,2.38
		c-1.66,2.94-2.54,6.5-4.64,8.99c-2.01,2.39-4.97,4.26-7.86,5.41c-2.56,1.02-3.99-0.5-2.57-3.49c1.46-3.06,2.92-6.12,4.33-9.21
		c1.42-3.1,3.59-5.96,1.01-9.76c-1.21-1.78-0.15-3.2,2.32-3.65c1.53-0.28,3.43-1.64,4.14-3.05c5.36-10.74,10.49-21.61,15.62-32.47
		c1.67-3.53,3.98-6,7.9-6.77c1.91-0.37,3.85-2.23,5.51-1.91c3.85,0.73,5.52,4.49,4.79,9.5c-0.98,6.75-2.09,13.48-3.12,20.22
		c-1.83,11.94-3.6,23.9-5.51,35.83c-0.22,1.39-1.06,3.68-1.8,3.76c-1.43,0.16-3.55-0.52-4.37-1.64c-1.31-1.79-2.22-4.18-2.49-6.41
		C704.26,640.09,704.95,637.65,705.29,634.57z M696.43,625.45c3.46,0,6.03,0.15,8.56-0.09c0.77-0.07,1.94-1.16,2.07-1.94
		c1.48-8.76,2.79-17.56,4.15-26.34c-0.35-0.13-0.7-0.26-1.05-0.39C705.72,605.99,701.28,615.28,696.43,625.45z"/>
	<path id="XMLID_27_" class="st0" d="M646.27,629.34c0.39,1.72,1.57,3.79,1.03,5.09c-1.96,4.64-3.8,9.66-6.97,13.37
		c-6.78,7.96-18.4,5.77-22.34-4.01c-1.82-4.51-2.48-9.53-3.75-14.66c-0.41,0.95-0.92,1.83-1.18,2.77
		c-1.6,5.75-3.25,11.49-4.66,17.29c-0.86,3.52-2.71,3.46-5.16,2c-3.47-2.07-4.6-5.32-3.57-9.14c5.49-20.3,11.11-40.56,16.63-60.85
		c0.74-2.71,2.26-2.87,4.38-1.91c3.74,1.7,5.27,5.56,3.95,10.45c-2.4,8.91-4.91,17.8-7.35,26.7c-0.36,1.32-0.64,2.66-1.09,4.58
		c4.58-1.08,7.37-3.74,9.25-7.21c1.59-2.94,2.77-6.21,3.66-9.46c0.84-3.08,2.26-3.13,4.51-1.76c3.25,1.98,4.53,4.91,3.79,8.68
		c-1.2,6.11-4.83,10.25-10.43,12.22c-2.99,1.05-4.04,2.8-3.31,5.7c0.83,3.28,1.51,6.72,3,9.68c3.71,7.33,9.85,7.47,13.93,0.4
		c1.74-3.02,2.91-6.38,4.34-9.59C645.38,629.56,645.83,629.45,646.27,629.34z"/>
	<path id="XMLID_23_" class="st0" d="M518.36,635.09c0.72-8.3,3.57-17.8,9.48-26.23c5.2-7.42,12.86-8.44,20.67-7.77
		c2.44,0.21,5.43,2.98,6.75,5.4c1.6,2.95,2.36,6.77,2.33,10.2c-0.11,10.04-3.06,19.37-8.56,27.65c-4.59,6.91-14.3,10.04-22.13,7.61
		C521.1,650.14,518.29,645.24,518.36,635.09z M547.61,618.28c0.16-7-1.53-10.4-4.81-11.21c-3.41-0.84-6.02,1-8.16,6.76
		c-2.11,5.68-3.9,11.53-5.35,17.43c-0.76,3.1-1.08,6.58-0.5,9.66c0.42,2.28,2.19,5.11,4.12,6.08c2.83,1.43,5.3-0.91,6.66-3.55
		C543.87,635.12,546.68,626.27,547.61,618.28z"/>
	<path id="XMLID_17_" class="st0" d="M599.6,615.71c-0.96,11.18-3.53,20.42-8.88,28.6c-4.58,7.01-14.64,10.15-22.49,7.53
		c-4.77-1.59-7.35-5.23-7.76-10.07c-1.14-13.23,2.54-25.06,10.98-35.1c4.95-5.89,12.01-6.1,18.69-5.58
		c2.43,0.19,5.38,2.97,6.75,5.39C598.62,609.52,598.98,613.4,599.6,615.71z M589.53,616.46c-0.25-1.58-0.1-3.53-0.9-4.86
		c-1.07-1.78-2.71-3.98-4.42-4.32c-1.68-0.33-4.67,0.9-5.49,2.39c-5.31,9.59-8.91,19.83-8.44,31.12c0.12,2.96,1.24,6.31,4.41,6.24
		c2.27-0.05,5.46-1.81,6.58-3.81C585.83,635.04,588.44,626.05,589.53,616.46z"/>
	<path id="XMLID_16_" class="st0" d="M676.39,630.09c-9.01,0.34-17.62,0.97-26.22,0.85c-3.91-0.05-6.02-4.13-5.55-8.69
		c7.81-0.44,15.59-1.07,23.39-1.23C672.05,620.94,674.85,624.16,676.39,630.09z"/>
	<path id="XMLID_15_" class="st0" d="M755.22,629.86c-6.34,0.41-12.04,0.8-17.75,1.14c-2.34,0.14-4.69,0.34-7.02,0.23
		c-5.1-0.22-7.72-3.53-7.34-9c7.93-0.42,15.86-1.19,23.79-1.13C751.42,621.14,753.61,624.91,755.22,629.86z"/>
	<path id="XMLID_14_" class="st0" d="M824.58,588.18c-0.77,2.1-1.79,5.32-3.19,8.35c-0.3,0.64-2.11,1.03-3.04,0.78
		c-4.12-1.12-6.16-4.95-5.07-9.17c0.32-1.22,0.66-2.5,1.27-3.57c1.03-1.83,0.4-5.31,4.06-4.7
		C821.92,580.41,824.57,583.6,824.58,588.18z"/>
</g>
<path class="st3" d="M798.47,348.9c0-2.63,0.37-5.17,1.08-7.58c-2.3,0.59-4.71,0.91-7.19,0.91c-15.71,0-28.44-12.73-28.44-28.44
	c0-12.11,7.56-22.45,18.23-26.55c-0.16,0.01-0.32,0.01-0.48,0.01c-13.07,0-23.67-10.6-23.67-23.67c0-4.64,1.34-8.97,3.66-12.63
	c-4.58-2.64-9.32-5.03-14.17-7.15c-9.23-4.04-18.87-7.12-28.71-9.26c-2.33-0.51-29.03-4.43-29.03-3.51c0-0.92-26.7,3-29.03,3.51
	c-9.84,2.14-19.48,5.22-28.71,9.26c-18.91,8.26-36.11,20.6-49.16,36.67c-15.96,19.66-24.66,43.99-26.63,69.11
	c-2.77,35.33,9.28,63.01,26.81,92.89c2.41,4.1,4.9,8.16,7.42,12.19l-0.01,0.03l1.21,1.87c0.69,1.09,1.38,2.17,2.06,3.26h35.75
	c0.17-7.92,0.3-15.84,0.43-23.76c0.08-5.04,0.17-10.07,0.26-15.11c0.09-5.08,0.33-10.24,0.55-15.23c0.35-7.75,0.71-15.77,0.56-23.65
	c-0.14-6.79-5.1-11.83-9.89-16.71c-1.19-1.21-2.43-2.47-3.54-3.71c-8-8.92-10.39-21.33-6.72-34.97c2.52-9.37,7.2-22.47,18.59-28.01
	c2.23-1.08,4.14-1.78,6.8-1.92l0.06,0l0.06,0c2.65,0.14,4.57,0.84,6.8,1.92c11.4,5.53,16.07,18.63,18.59,28.01
	c3.67,13.63,1.28,26.05-6.72,34.97c-1.12,1.24-2.35,2.5-3.54,3.71c-4.8,4.87-9.75,9.91-9.89,16.71c-0.16,7.87,0.2,15.89,0.56,23.65
	c0.23,4.99,0.46,10.15,0.55,15.24c0.09,5,0.17,10.01,0.26,15.01c0.13,7.95,0.26,15.9,0.43,23.85h38.32l0.99-92.75
	c-5.34-0.93-10.11-4.42-12.6-9.25c-2.74-5.32-1.85-10.85-1-16.21c0.15-0.92,0.3-1.84,0.42-2.76l6.09-43.4h5.43l-1.85,49.34
	c-0.01,0.24,0.08,0.47,0.25,0.65c0.17,0.17,0.39,0.27,0.64,0.27c0.48,0,0.87-0.38,0.88-0.86l1.11-49.39h6.03L688,344.82
	c0,0.24,0.09,0.46,0.26,0.63c0.33,0.34,0.92,0.34,1.26,0c0.17-0.17,0.26-0.39,0.26-0.63l-0.37-49.36h6.02l1.11,49.39
	c0.01,0.48,0.41,0.86,0.88,0.86c0.24,0,0.47-0.1,0.63-0.27c0.17-0.17,0.26-0.4,0.25-0.65l-1.85-49.34h5.44l6.09,43.4
	c0.13,0.92,0.28,1.84,0.42,2.76c0.86,5.35,1.75,10.88-1,16.21c-2.49,4.84-7.27,8.32-12.6,9.25l0.99,92.75h26.46
	c-0.03-1.55-0.01-4.34,0.02-9.47l0.32-57.18c-9.16-6.56-8.92-19.9-8.75-29.69l0.42-24.62c0.2-11.61,2.71-28.22,13.54-41.45
	c1.26-1.54,3.31-2.1,5.22-1.42c1.89,0.67,3.11,2.39,3.11,4.36v159.47h49.66c3.67-5.71,7.25-11.49,10.68-17.35
	c12.93-22.04,22.88-42.89,26.1-66.49C808.99,374.42,798.47,362.89,798.47,348.9z M733.63,462.32V300.35c0-1.1-0.75-1.76-1.45-2.01
	c-0.72-0.26-1.73-0.22-2.44,0.65c-10.38,12.68-12.79,28.7-12.98,39.91l-0.42,24.63c-0.17,9.41-0.4,22.3,8.19,27.95l0.57,0.37l0,0.68
	c0,0.68-0.39,68.17-0.39,68.55l0,1.25l-31.39,0l-1.04-97.44l1.36-0.16c4.87-0.59,9.29-3.67,11.54-8.04
	c2.37-4.59,1.58-9.49,0.75-14.67c-0.15-0.94-0.3-1.87-0.43-2.81l-5.78-41.25h-0.67l1.76,46.74c0.03,0.93-0.3,1.81-0.94,2.47
	c-0.64,0.67-1.51,1.04-2.44,1.04c-1.82,0-3.34-1.48-3.38-3.31l-1.06-46.95h-1.06l0.35,46.85c0.01,0.91-0.34,1.76-0.98,2.41
	c-1.28,1.29-3.52,1.29-4.8,0c-0.64-0.64-0.99-1.5-0.98-2.41l0.35-46.85h-1.06l-1.06,46.95c-0.04,1.82-1.56,3.31-3.38,3.31
	c-0.93,0-1.79-0.37-2.44-1.04c-0.64-0.67-0.98-1.55-0.94-2.47l1.76-46.74h-0.66l-5.78,41.24c-0.13,0.93-0.28,1.87-0.43,2.81
	c-0.83,5.18-1.62,10.07,0.75,14.67c2.25,4.37,6.67,7.45,11.54,8.04l1.36,0.17l-1.04,97.44h-43.24l-0.03-1.22
	c-0.18-8.36-0.32-16.73-0.46-25.09c-0.08-5-0.17-10-0.26-15.01c-0.09-5.05-0.33-10.2-0.55-15.17c-0.35-7.79-0.72-15.85-0.56-23.81
	c0.16-7.79,5.71-13.43,10.61-18.41c1.23-1.25,2.39-2.43,3.47-3.63c7.42-8.27,9.61-19.86,6.17-32.65c-2.4-8.9-6.79-21.32-17.27-26.41
	c-1.98-0.96-3.56-1.54-5.77-1.67c-2.21,0.12-3.79,0.71-5.77,1.67c-10.48,5.09-14.88,17.51-17.27,26.41
	c-3.44,12.79-1.25,24.38,6.17,32.65c1.08,1.2,2.24,2.38,3.47,3.63c4.9,4.98,10.45,10.62,10.61,18.41c0.16,7.96-0.2,16.02-0.56,23.81
	c-0.23,4.97-0.46,10.12-0.55,15.17c-0.09,5.03-0.18,10.07-0.26,15.1c-0.14,8.33-0.28,16.66-0.46,24.99l-0.03,1.22h-36.53l1,1.54
	h-0.07c0.76,1.16,1.55,2.32,2.32,3.47l0.72,1.11l0.02,0c26.31,39.29,57.75,75.33,90.37,109.31c33.51-34.9,65.77-71.97,92.51-112.51
	l0.02,0l0.6-0.92c0.1-0.15,0.21-0.31,0.31-0.46h-0.01l1-1.54H733.63z"/>
</svg>
